<?xml version="1.0" encoding="UTF-8" standalone="no" ?>
<!DOCTYPE svg PUBLIC "-//W3C//DTD SVG 1.1//EN" "http://www.w3.org/Graphics/SVG/1.1/DTD/svg11.dtd">
<svg xmlns="http://www.w3.org/2000/svg" xmlns:xlink="http://www.w3.org/1999/xlink" version="1.1" width="100" height="100" viewBox="0 0 500 500" xml:space="preserve">
<desc>Created with Fabric.js 4.6.0</desc>
<defs>
</defs>
<g transform="matrix(2.64 0 0 2.64 238.54 244.51)" id="vSJ6uwKeWbCGILgW22uxz"  >
<linearGradient id="SVGID_854" gradientUnits="userSpaceOnUse" gradientTransform="matrix(1 0 0 1 -68.04 -88.84)"  x1="2.842170943040401e-14" y1="75.71659433071946" x2="136.07701999999998" y2="73.51395115891327">
<stop offset="0%" style="stop-color:#192D4E;stop-opacity: 1"/>
<stop offset="45.24463879828783%" style="stop-color:#284280;stop-opacity: 1"/>
<stop offset="100%" style="stop-color:#0C2C40;stop-opacity: 1"/>
</linearGradient>
<path style="stroke: rgb(0,0,0); stroke-width: 0; stroke-dasharray: none; stroke-linecap: butt; stroke-dashoffset: 0; stroke-linejoin: miter; stroke-miterlimit: 4; fill: url(#SVGID_854); fill-rule: nonzero; opacity: 1;" vector-effect="non-scaling-stroke"  transform=" translate(0, 0)" d="M 15.66596 43.03319 C 15.66596 43.03319 21.13488 40.73826 27.93001 37.71257 C 34.725139999999996 34.68688 42.99486 32.56247 42.99486 32.56247 L 65.19198 88.84147 L 33.7124 88.84147 z M -47.28823 44.36058 C -58.36859 52.16131 -68.03851 63.19695 -68.03851 63.19695 L -6.499580000000002 -88.84146 L 29.87281 1.187340000000006 C 29.87281 1.187340000000006 37.18675 -1.316189999999994 51.64944 -14.970939999999995 C 66.11212 -28.625689999999995 68.03851 -38.20855999999999 68.03851 -38.20855999999999 C 68.03851 -38.20855999999999 66.69713 -30.36033999999999 61.459140000000005 -21.23173999999999 C 57.99672 -15.197539999999991 51.978080000000006 -8.226719999999991 45.896330000000006 -2.5896299999999925 C 30.614070000000005 11.575300000000007 6.384540000000008 19.501040000000007 6.384540000000008 19.501040000000007 L -6.499569999999991 -13.281959999999994 L -24.643309999999992 31.871110000000005 C -24.643309999999992 31.871110000000005 -36.20786 36.55986000000001 -47.288219999999995 44.36059 z" stroke-linecap="round" />
</g>
<g transform="matrix(2.64 0 0 2.64 249.4 250.68)" id="NwnD7jjqU3GMG32AZI3WZ"  >
<radialGradient id="SVGID_855" gradientUnits="userSpaceOnUse" gradientTransform="matrix(1 0 0 1 -83.8 -94.17)"  cx="72.34963124374929" cy="76.54718916035682" r="108.21642657234571" fx="72.34963124374929" fy="76.54718916035682">
<stop offset="0%" style="stop-color:#329828;stop-opacity: 1"/>
<stop offset="100%" style="stop-color:#1D4E18;stop-opacity: 1"/>
</radialGradient>
<path style="stroke: rgb(0,0,0); stroke-width: 0; stroke-dasharray: none; stroke-linecap: butt; stroke-dashoffset: 0; stroke-linejoin: miter; stroke-miterlimit: 4; fill: url(#SVGID_855); fill-rule: nonzero; opacity: 1;" vector-effect="non-scaling-stroke"  transform=" translate(0, 0)" d="M -83.80338 94.16833 C -83.80338 94.16833 -79.56498 70.67587 -56.50047000000001 51.48233 C -33.435950000000005 32.28878 -5.025500000000008 26.185389999999998 7.900739999999999 20.50537 C 20.82698 14.825339999999999 28.29179 10.2738 38.08007 3.8859899999999996 C 44.20811 -0.11315000000000053 53.19104 -9.97231 59.79954 -20.93004 C 63.74676 -27.475030000000004 66.47989 -37.200860000000006 66.78146 -41.36246 C 67.58791 -52.49149 67.04768 -59.99402 59.274609999999996 -74.85389 C 56.25785 -80.62106 50.80611999999999 -86.16844 45.00702999999999 -90.12277 C 35.863989999999994 -96.35730000000001 26.922319999999992 -92.37328000000001 26.922319999999992 -92.37328000000001 C 26.922319999999992 -92.37328000000001 48.015429999999995 -101.22579 69.46704 -79.61288 C 78.04959 -70.9658 81.89595 -61.52002 83.22583 -52.58411 C 85.21992 -39.185210000000005 81.55613 -28.268490000000003 79.71769 -22.753180000000004 C 78.10753000000001 -17.922690000000003 72.24995 -6.515520000000002 63.666700000000006 2.4999699999999976 C 55.914010000000005 10.643069999999998 51.50824000000001 14.199089999999998 38.080070000000006 21.643629999999998 C 24.651900000000005 29.088169999999998 0.1973600000000033 36.93173 -22.295559999999995 45.732169999999996 C -43.81334 54.151089999999996 -50.99687999999999 60.09867 -63.249449999999996 69.9045 L -63.249449999999996 69.9045 C -63.289019999999994 69.93617 -63.29662999999999 69.99339 -63.266709999999996 70.0343 C -63.23679 70.07521 -63.179959999999994 70.0853 -63.13778 70.05719 C -53.67585 63.74972 -46.50759 58.918730000000004 -33.01871 53.31557000000001 C -18.68067 47.35967000000001 -1.2509599999999992 40.992900000000006 32.99925 27.87919000000001 C 67.24945 14.765490000000009 77.65791 -11.049829999999993 77.65791 -11.049829999999993 C 77.65791 -11.049829999999993 67.36129 19.184570000000008 32.99925 33.180910000000004 C -1.3628 47.177260000000004 -27.920409999999997 53.93377 -51.073949999999996 67.2508 C -74.22748999999999 80.56783 -83.80337 94.16833 -83.80337 94.16833 z" stroke-linecap="round" />
</g>
</svg>