<?xml version="1.0" encoding="UTF-8"?>
<svg xmlns="http://www.w3.org/2000/svg" xmlns:xlink="http://www.w3.org/1999/xlink" width="256px" height="256px" viewBox="0 0 256 256" version="1.1">
<defs>
<linearGradient id="linear0" gradientUnits="userSpaceOnUse" x1="0.000000000000028422" y1="75.716594" x2="136.07702" y2="73.513951" gradientTransform="matrix(1.35168,0,0,1.35168,30.164173,5.105869)">
<stop offset="0" style="stop-color:rgb(9.803922%,17.647059%,30.588235%);stop-opacity:1;"/>
<stop offset="0.452446" style="stop-color:rgb(15.686275%,25.882353%,50.196078%);stop-opacity:1;"/>
<stop offset="1" style="stop-color:rgb(4.705882%,17.254902%,25.098039%);stop-opacity:1;"/>
</linearGradient>
<radialGradient id="radial0" gradientUnits="userSpaceOnUse" cx="72.349631" cy="76.547189" fx="72.349631" fy="76.547189" r="108.216427" gradientTransform="matrix(1.35168,0,0,1.35168,14.422016,1.060454)">
<stop offset="0" style="stop-color:rgb(19.607843%,59.607843%,15.686275%);stop-opacity:1;"/>
<stop offset="1" style="stop-color:rgb(11.372549%,30.588235%,9.411765%);stop-opacity:1;"/>
</radialGradient>
</defs>
<g id="surface1">
<path style=" stroke:none;fill-rule:nonzero;fill:url(#linear0);" d="M 143.308594 183.355469 C 143.308594 183.355469 150.699219 180.253906 159.886719 176.164062 C 169.070312 172.074219 180.246094 169.203125 180.246094 169.203125 L 210.25 245.273438 L 167.699219 245.273438 Z M 58.214844 185.152344 C 43.238281 195.695312 30.167969 210.609375 30.167969 210.609375 L 113.347656 5.105469 L 162.511719 126.792969 C 162.511719 126.792969 172.398438 123.410156 191.945312 104.953125 C 211.496094 86.496094 214.097656 73.542969 214.097656 73.542969 C 214.097656 73.542969 212.285156 84.152344 205.207031 96.492188 C 200.527344 104.648438 192.390625 114.070312 184.167969 121.6875 C 163.511719 140.835938 130.761719 151.546875 130.761719 151.546875 L 113.347656 107.234375 L 88.824219 168.269531 C 88.824219 168.269531 73.191406 174.605469 58.214844 185.152344 Z M 58.214844 185.152344 "/>
<path style=" stroke:none;fill-rule:nonzero;fill:url(#radial0);" d="M 14.417969 255.632812 C 14.417969 255.632812 20.144531 223.878906 51.320312 197.9375 C 82.5 171.992188 120.898438 163.742188 138.371094 156.066406 C 155.84375 148.386719 165.933594 142.234375 179.164062 133.601562 C 187.449219 128.195312 199.589844 114.867188 208.523438 100.058594 C 213.859375 91.210938 217.550781 78.066406 217.960938 72.4375 C 219.050781 57.394531 218.320312 47.253906 207.8125 27.167969 C 203.734375 19.375 196.367188 11.875 188.527344 6.53125 C 176.167969 -1.894531 164.082031 3.488281 164.082031 3.488281 C 164.082031 3.488281 192.59375 -8.476562 221.589844 20.738281 C 233.191406 32.425781 238.390625 45.191406 240.1875 57.269531 C 242.882812 75.382812 237.929688 90.136719 235.445312 97.59375 C 233.269531 104.121094 225.351562 119.542969 213.75 131.726562 C 203.269531 142.734375 197.316406 147.539062 179.164062 157.601562 C 161.015625 167.667969 127.960938 178.269531 97.554688 190.164062 C 68.472656 201.542969 58.761719 209.582031 42.199219 222.835938 C 42.144531 222.878906 42.136719 222.957031 42.175781 223.011719 C 42.21875 223.066406 42.292969 223.082031 42.351562 223.042969 C 55.140625 214.515625 64.828125 207.988281 83.0625 200.414062 C 102.441406 192.363281 126 183.757812 172.296875 166.03125 C 218.59375 148.304688 232.660156 113.414062 232.660156 113.414062 C 232.660156 113.414062 218.742188 154.28125 172.296875 173.199219 C 125.851562 192.117188 89.953125 201.25 58.65625 219.25 C 27.359375 237.25 14.417969 255.632812 14.417969 255.632812 Z M 14.417969 255.632812 "/>
</g>
</svg>
