<svg xmlns="http://www.w3.org/2000/svg" width="512" height="512" viewBox="0 0 512 512" version="1.1">
	<path d="M 345.500 2.929 C 341.698 3.677, 341.808 3.723, 347.701 3.858 C 365.716 4.270, 381.139 12.696, 399.454 32.130 C 409.068 42.331, 414.549 50.629, 421.736 65.867 C 432.874 89.479, 437.013 106.455, 436.980 128.381 C 436.955 144.758, 435.878 152.320, 431.408 167.500 C 423.107 195.691, 404.046 225.369, 377.315 251.727 C 361.609 267.213, 338.014 282.499, 301 301.168 C 280.190 311.665, 271.635 315.221, 242.783 325.368 C 210.685 336.657, 201.894 340.027, 183.497 348.095 C 110.480 380.116, 62.523 424.746, 38.534 483 C 34.078 493.821, 28.671 510.004, 29.301 510.635 C 29.497 510.831, 32.028 508.069, 34.926 504.498 C 45.142 491.907, 66.708 472.997, 87.962 457.994 C 117.343 437.255, 152.426 419.495, 201 400.772 C 219.673 393.575, 287.316 368.960, 287.554 369.276 C 287.646 369.399, 298.472 396.834, 311.611 430.243 L 335.500 490.985 378.144 490.993 L 420.787 491 415.575 477.750 C 412.709 470.463, 399.427 436.729, 386.061 402.786 C 372.695 368.843, 362.017 340.397, 362.334 339.573 C 362.650 338.749, 365.742 336.645, 369.204 334.898 C 396.272 321.239, 431.024 288.921, 448.309 261.334 C 452.277 255, 462 237.260, 462 236.353 C 462 235.912, 459.915 238.915, 457.367 243.026 C 442.323 267.294, 418.630 291.131, 392.640 308.146 C 370.575 322.592, 367.037 324.138, 281.606 356.638 C 202.892 386.583, 157.274 404.850, 141.602 412.701 C 129.620 418.704, 104.450 433.389, 92.250 441.494 C 89.362 443.412, 87 444.822, 87 444.626 C 87 444.430, 91.815 440.496, 97.700 435.885 C 137.443 404.742, 157.831 394.415, 239.500 364.059 C 298.492 342.132, 308.739 338.199, 325 331.245 C 334.625 327.129, 346.100 321.962, 350.500 319.761 C 362.127 313.947, 385.110 300.192, 395.460 292.853 C 406.359 285.125, 429.648 262.735, 438.936 251.057 C 459.499 225.201, 472.588 198.236, 479.024 168.473 C 481.989 154.766, 482.792 127.503, 480.644 113.500 C 478.047 96.566, 470.471 77.258, 460.428 61.978 C 453.845 51.962, 435.020 32.723, 424.235 24.988 C 412.779 16.774, 395.964 8.732, 383.515 5.515 C 372.818 2.751, 353.190 1.416, 345.500 2.929 M 145.043 212.283 C 100.261 322.952, 62.987 415.053, 62.213 416.952 C 61.081 419.725, 63.888 417.415, 76.480 405.210 C 106.647 375.970, 131.678 358.532, 167.475 341.819 L 177.500 337.138 201.867 276.582 C 215.268 243.276, 226.552 216.223, 226.941 216.464 C 227.330 216.704, 235.265 236.269, 244.574 259.940 C 253.883 283.612, 261.988 302.984, 262.584 302.990 C 264.441 303.007, 288.366 293.344, 299.688 288.003 C 333.290 272.153, 357.687 255.358, 379.055 233.364 C 396.759 215.142, 406.707 201.713, 415.404 184.294 C 424.482 166.111, 430.011 148.091, 422.006 162.775 C 413.310 178.727, 401.347 193.718, 384.295 210.029 C 361.194 232.126, 328.196 255.783, 325.124 252.450 C 324.642 251.927, 302.543 197.725, 276.013 132 C 249.484 66.275, 227.483 12.177, 227.122 11.783 C 226.761 11.388, 189.826 101.613, 145.043 212.283" stroke="none" fill="black" fill-rule="evenodd"/>
</svg>